<?xml version="1.0" encoding="utf-8"?>
<svg xmlns="http://www.w3.org/2000/svg" xmlns:svg="http://www.w3.org/2000/svg" version="1.1" viewBox="0 0 1400 540">
	<title>The titlepage for the Standard Ebooks edition of The Madman: His Parables and Poems, by Khalil Gibran</title>
	<g aria-label="THE MADMAN:">
		<path d="M 321.03362,68.245613 H 339.3728 V 130 h 17.59064 V 68.245613 h 18.33919 V 52.807016 h -54.26901 z"/>
		<path d="m 404.22806,99.029239 h 24.88889 V 130 H 446.7076 V 52.807016 H 429.11695 V 83.590642 H 404.22806 V 52.807016 H 386.63742 V 130 h 17.59064 z"/>
		<path d="M 507.0731,52.807016 H 462.90936 V 130 H 507.0731 V 114.5614 H 480.5 V 99.029239 h 25.45029 V 83.590642 H 480.5 V 68.245613 h 26.5731 z"/>
		<path d="m 616.58334,130 h 17.59064 L 627.25,52.807016 H 608.53655 L 591.41375,97.345029 574.29094,52.807016 H 555.57749 L 548.65351,130 h 17.59064 l 3.64913,-45.754387 h 0.46783 l 15.81287,45.286547 h 10.47953 l 15.81287,-45.286547 h 0.46783 z"/>
		<path d="m 685.42545,52.807016 h -16.2807 L 637.98685,130 h 18.90059 l 5.7076,-15.4386 h 29.38012 L 697.68276,130 h 18.90059 z m 0.5614,46.31579 h -17.4035 l 8.60818,-22.45614 h 0.18714 z"/>
		<path d="M 724.50294,52.807016 V 130 h 22.36257 c 21.23977,0 38.92398,-16.09357 38.92398,-38.643276 0,-22.45614 -17.77778,-38.549708 -38.92398,-38.549708 z M 742.09358,114.2807 V 68.526315 h 2.71345 c 13.09942,0 21.98831,10.011696 21.98831,22.923977 -0.0936,12.912278 -8.98246,22.830408 -21.98831,22.830408 z"/>
		<path d="M 862.39475,130 H 879.9854 L 873.06142,52.807016 H 854.34797 L 837.22516,97.345029 820.10235,52.807016 H 801.3889 L 794.46493,130 h 17.59064 l 3.64912,-45.754387 h 0.46784 l 15.81287,45.286547 h 10.47953 l 15.81286,-45.286547 h 0.46784 z"/>
		<path d="m 931.23685,52.807016 h -16.2807 L 883.79826,130 h 18.90058 l 5.7076,-15.4386 h 29.38012 L 943.49416,130 h 18.90059 z m 0.56141,46.31579 h -17.40351 l 8.60818,-22.45614 h 0.18714 z"/>
		<path d="m 987.90498,82.093566 h 0.18714 L 1018.7822,130 h 17.5906 V 52.807016 h -17.5906 v 47.906434 h -0.1872 L 987.90498,52.807016 H 970.31434 V 130 h 17.59064 z"/>
		<path d="m 1063.2836,78.163742 c -5.8947,0 -10.6666,4.77193 -10.6666,10.760234 0,5.894737 4.7719,10.666667 10.6666,10.666667 5.9883,0 10.7603,-4.77193 10.7603,-10.666667 0,-5.988304 -4.772,-10.760234 -10.7603,-10.760234 z m 0,31.812868 c -5.8947,0 -10.6666,4.77193 -10.6666,10.76023 0,5.89474 4.7719,10.66667 10.6666,10.66667 5.9883,0 10.7603,-4.77193 10.7603,-10.66667 0,-5.9883 -4.772,-10.76023 -10.7603,-10.76023 z"/>
	</g>
	<g aria-label="HIS PARABLES">
		<path d="m 351.22368,199.02924 h 24.88889 V 230 h 17.59064 v -77.19298 h -17.59064 v 30.78362 H 351.22368 V 152.80702 H 333.63303 V 230 h 17.59065 z"/>
		<path d="M 427.49561,152.80702 H 409.90497 V 230 h 17.59064 z"/>
		<path d="m 470.3962,151.40351 c -12.44445,0 -25.16959,9.16959 -25.16959,23.57895 0,8.04678 5.4269,15.25146 14.69006,19.83625 9.16959,4.5848 17.4035,7.11111 17.4035,12.72515 0,7.20468 -7.29824,7.57895 -11.1345,7.57895 -8.60819,0 -18.90058,-8.70176 -18.90058,-8.70176 l -8.79533,14.78363 c 0,0 10.94737,10.19883 29.00585,10.19883 15.06433,0 29.09942,-6.45614 29.09942,-24.88889 0,-10.10526 -9.45029,-17.40351 -18.05848,-21.05263 -8.79532,-3.74269 -16.09357,-6.83041 -16.09357,-11.13451 0,-4.21052 3.18129,-6.92397 9.16959,-6.92397 7.95322,0 15.62573,5.33333 15.62573,5.33333 l 7.11111,-14.03509 c 0,0 -9.91812,-7.29824 -23.95321,-7.29824 z"/>
		<path d="M 540.40205,152.80702 V 230 h 17.59064 v -28.63158 h 10.5731 c 15.06433,0 26.38597,-8.88889 26.38597,-24.79532 0,-16 -11.32164,-23.76608 -26.38597,-23.76608 z m 17.59064,34.52631 V 166.8421 h 4.95907 c 6.92397,0 13.47368,2.33919 13.47368,10.2924 0,7.85965 -6.54971,10.19883 -13.47368,10.19883 z"/>
		<path d="M 640.89329,152.80702 H 624.61258 L 593.45469,230 h 18.90058 l 5.70761,-15.4386 h 29.38011 L 653.1506,230 h 18.90058 z m 0.5614,46.31579 h -17.40351 l 8.60819,-22.45614 h 0.18713 z"/>
		<path d="M 679.97077,152.80702 V 230 h 17.59065 V 199.49708 L 721.14036,230 h 22.36258 l -26.5731,-31.90643 c 9.45029,-2.99416 15.81286,-10.76024 15.81286,-22.36258 0,-15.15789 -10.8538,-22.92397 -25.16959,-22.92397 z m 17.59065,34.24561 V 166.8421 h 2.05848 c 6.64327,0 14.59649,0.46784 14.59649,10.10527 0,9.63742 -7.95322,10.10526 -14.59649,10.10526 z"/>
		<path d="m 791.24415,152.80702 h -16.2807 L 743.80555,230 h 18.90058 l 5.70761,-15.4386 h 29.38011 L 803.50146,230 h 18.90058 z m 0.5614,46.31579 h -17.40351 l 8.60819,-22.45614 h 0.18713 z"/>
		<path d="M 830.32163,152.80702 V 230 h 29.28655 c 16,0 25.26316,-8.79532 25.26316,-21.52047 0,-12.44444 -6.83041,-17.77778 -16.46783,-19.46199 6.5497,-3.36842 9.63742,-9.45029 9.63742,-16.5614 0,-14.69006 -10.47953,-19.64912 -23.76608,-19.64912 z m 17.59065,30.22222 v -16.65497 h 1.40351 c 7.67251,0 11.6959,2.33918 11.6959,7.85965 0,6.45614 -4.11696,8.79532 -11.6959,8.79532 z m 0,33.40351 v -18.24562 h 5.52047 c 8.32748,0 12.91228,2.52632 12.91228,9.63743 0,6.08187 -4.5848,8.60819 -12.91228,8.60819 z"/>
		<path d="M 915.22954,152.80702 H 897.63889 V 230 h 44.16375 v -15.4386 h -26.5731 z"/>
		<path d="M 999.61697,152.80702 H 955.45323 V 230 h 44.16374 v -15.4386 h -26.5731 v -15.53216 h 25.45029 v -15.4386 h -25.45029 v -15.34503 h 26.5731 z"/>
		<path d="m 1043.174,151.40351 c -12.4445,0 -25.1696,9.16959 -25.1696,23.57895 0,8.04678 5.4269,15.25146 14.69,19.83625 9.1696,4.5848 17.4036,7.11111 17.4036,12.72515 0,7.20468 -7.2983,7.57895 -11.1345,7.57895 -8.6082,0 -18.9006,-8.70176 -18.9006,-8.70176 l -8.7954,14.78363 c 0,0 10.9474,10.19883 29.0059,10.19883 15.0643,0 29.0994,-6.45614 29.0994,-24.88889 0,-10.10526 -9.4503,-17.40351 -18.0585,-21.05263 -8.7953,-3.74269 -16.0935,-6.83041 -16.0935,-11.13451 0,-4.21052 3.1812,-6.92397 9.1696,-6.92397 7.9532,0 15.6257,5.33333 15.6257,5.33333 l 7.1111,-14.03509 c 0,0 -9.9181,-7.29824 -23.9532,-7.29824 z"/>
	</g>
	<g aria-label="AND POEMS">
		<path d="m 428.12646,252.80702 h -16.2807 L 380.68786,330 h 18.90059 l 5.7076,-15.4386 h 29.38012 L 440.38377,330 h 18.90058 z m 0.5614,46.31579 h -17.40351 l 8.60819,-22.45614 h 0.18713 z"/>
		<path d="m 484.79459,282.09357 h 0.18713 L 515.67178,330 h 17.59064 v -77.19298 h -17.59064 v 47.90643 h -0.18713 L 484.79459,252.80702 H 467.20394 V 330 h 17.59065 z"/>
		<path d="M 549.50659,252.80702 V 330 h 22.36257 c 21.23977,0 38.92398,-16.09357 38.92398,-38.64328 0,-22.45614 -17.77778,-38.5497 -38.92398,-38.5497 z m 17.59064,61.47368 v -45.75439 h 2.71345 c 13.09942,0 21.98831,10.0117 21.98831,22.92398 -0.0936,12.91228 -8.98246,22.83041 -21.98831,22.83041 z"/>
		<path d="M 654.17031,252.80702 V 330 h 17.59065 v -28.63158 h 10.5731 c 15.06432,0 26.38596,-8.88889 26.38596,-24.79532 0,-16 -11.32164,-23.76608 -26.38596,-23.76608 z m 17.59065,34.52631 V 266.8421 h 4.95906 c 6.92398,0 13.47369,2.33919 13.47369,10.2924 0,7.85965 -6.54971,10.19883 -13.47369,10.19883 z"/>
		<path d="m 718.02559,291.35672 c 0,22.54971 16.09356,40.04679 38.92397,40.04679 22.17544,0 38.83041,-17.49708 38.83041,-40.04679 0,-22.5497 -17.40351,-39.95321 -38.83041,-39.95321 -21.23976,0 -38.92397,17.40351 -38.92397,39.95321 z m 18.99415,0 c 0,-11.50877 6.36257,-23.01754 19.92982,-23.01754 13.66082,0 19.83626,11.50877 19.83626,23.01754 0,11.50878 -5.80117,23.01755 -19.83626,23.01755 -14.40935,0 -19.92982,-11.50877 -19.92982,-23.01755 z"/>
		<path d="M 852.70543,252.80702 H 808.54168 V 330 h 44.16375 v -15.4386 h -26.5731 v -15.53216 h 25.45029 v -15.4386 h -25.45029 v -15.34503 h 26.5731 z"/>
		<path d="m 931.63085,330 h 17.59065 l -6.92398,-77.19298 h -18.71345 l -17.12281,44.53801 -17.1228,-44.53801 H 870.62501 L 863.70103,330 h 17.59064 l 3.64913,-45.75439 h 0.46783 l 15.81287,45.28655 h 10.47953 l 15.81287,-45.28655 h 0.46783 z"/>
		<path d="m 987.88527,251.40351 c -12.44445,0 -25.16959,9.16959 -25.16959,23.57895 0,8.04678 5.4269,15.25146 14.69005,19.83625 9.16959,4.5848 17.40351,7.11111 17.40351,12.72515 0,7.20468 -7.29824,7.57895 -11.1345,7.57895 -8.60819,0 -18.90059,-8.70176 -18.90059,-8.70176 l -8.79532,14.78363 c 0,0 10.94737,10.19883 29.00585,10.19883 15.06432,0 29.09942,-6.45614 29.09942,-24.88889 0,-10.10526 -9.4503,-17.40351 -18.05848,-21.05263 -8.79532,-3.74269 -16.09357,-6.83041 -16.09357,-11.13451 0,-4.21052 3.18129,-6.92397 9.16959,-6.92397 7.95322,0 15.62576,5.33333 15.62576,5.33333 l 7.1111,-14.03509 c 0,0 -9.9181,-7.29824 -23.95323,-7.29824 z"/>
	</g>
	<g aria-label="KHALIL GIBRAN">
		<path d="m 440.17983,490 -26.94737,-30.45614 23.29824,-27.4386 h -16 l -19.85964,23.64913 V 432.10526 H 387.47807 V 490 h 13.19299 V 465.4386 L 422.00439,490 Z"/>
		<path d="m 460.9068,466.77193 h 18.66667 V 490 h 13.19298 v -57.89474 h -13.19298 v 23.08772 H 460.9068 V 432.10526 H 447.71382 V 490 h 13.19298 z"/>
		<path d="M 535.57127,432.10526 H 523.36074 L 499.99232,490 h 14.17544 l 4.2807,-11.57895 h 22.03509 L 544.76425,490 h 14.17544 z m 0.42105,34.73685 H 522.93969 L 529.39583,450 h 0.14035 z"/>
		<path d="M 579.32236,432.10526 H 566.12938 V 490 h 33.12281 v -11.57895 h -19.92983 z"/>
		<path d="M 623.93311,432.10526 H 610.74013 V 490 h 13.19298 z"/>
		<path d="M 650.58881,432.10526 H 637.39583 V 490 h 33.1228 v -11.57895 h -19.92982 z"/>
		<path d="m 758.54605,457.57895 h -26.73684 v 10.17544 h 13.33333 c 0,7.08772 -6.24561,11.15789 -12.5614,11.15789 -8.14035,0 -14.73684,-8 -14.73684,-17.82456 0,-10.03509 6.59649,-18.10526 14.73684,-18.10526 5.12281,0 9.54386,2.03508 12.91228,7.43859 l 8.63158,-9.47368 c -5.05263,-6.10526 -12.14035,-9.89474 -22.31579,-9.89474 -16.2807,0 -28.21053,13.40351 -28.21053,30.03509 0,16.5614 12.63158,29.96491 28.21053,29.96491 11.36842,0 23.57895,-6.24561 26.73684,-20.91228 z"/>
		<path d="M 782.5022,432.10526 H 769.30922 V 490 h 13.19298 z"/>
		<path d="M 795.96492,432.10526 V 490 h 21.96491 c 12,0 18.94737,-6.59649 18.94737,-16.14035 0,-9.33333 -5.12281,-13.33333 -12.35088,-14.59649 4.91228,-2.52632 7.22807,-7.08772 7.22807,-12.42105 0,-11.01755 -7.85965,-14.73685 -17.82456,-14.73685 z m 13.19298,22.66667 V 442.2807 h 1.05263 c 5.75439,0 8.77193,1.75439 8.77193,5.89474 0,4.8421 -3.08772,6.59649 -8.77193,6.59649 z m 0,25.05263 v -13.68421 h 4.14035 c 6.24562,0 9.68421,1.89474 9.68421,7.22807 0,4.5614 -3.43859,6.45614 -9.68421,6.45614 z"/>
		<path d="M 847.70283,432.10526 V 490 h 13.19299 V 467.12281 L 878.58003,490 h 16.77193 l -19.92983,-23.92982 c 7.08772,-2.24562 11.85965,-8.07018 11.85965,-16.77193 0,-11.36842 -8.14035,-17.19299 -18.87719,-17.19299 z m 13.19299,25.68421 v -15.15789 h 1.54386 c 4.98245,0 10.94737,0.35088 10.94737,7.57895 0,7.22807 -5.96492,7.57894 -10.94737,7.57894 z"/>
		<path d="M 932.40789,432.10526 H 920.19736 L 896.82894,490 h 14.17544 l 4.2807,-11.57895 h 22.03509 L 941.60087,490 h 14.17544 z m 0.42105,34.73685 H 919.77631 L 926.23245,450 h 0.14035 z"/>
		<path d="m 976.15897,454.07018 h 0.14035 L 999.31686,490 h 13.19294 v -57.89474 h -13.19294 v 35.92983 h -0.14035 L 976.15897,432.10526 H 962.96599 V 490 h 13.19298 z"/>
	</g>
</svg>
