<?xml version="1.0" encoding="utf-8"?>
<svg xmlns="http://www.w3.org/2000/svg" xmlns:svg="http://www.w3.org/2000/svg" version="1.1" viewBox="0 0 1400 340">
	<title>The titlepage for the Standard Ebooks edition of The Madman, by Khalil Gibran</title>
	<g aria-label="THE MADMAN">
		<path d="M 339.88961,68.245613 H 358.2288 V 130 h 17.59064 V 68.245613 h 18.33918 V 52.807016 h -54.26901 z"/>
		<path d="m 423.08406,99.029239 h 24.88889 V 130 h 17.59064 V 52.807016 H 447.97295 V 83.590642 H 423.08406 V 52.807016 H 405.49342 V 130 h 17.59064 z"/>
		<path d="M 525.92909,52.807016 H 481.76535 V 130 h 44.16374 v -15.4386 h -26.5731 V 99.029239 h 25.4503 V 83.590642 h -25.4503 V 68.245613 h 26.5731 z"/>
		<path d="m 635.43933,130 h 17.59064 L 646.106,52.807016 H 627.39255 L 610.26974,97.345029 593.14693,52.807016 H 574.43348 L 567.50951,130 h 17.59064 l 3.64912,-45.754387 h 0.46784 l 15.81286,45.286547 h 10.47954 l 15.81286,-45.286547 h 0.46784 z"/>
		<path d="M 704.28145,52.807016 H 688.00074 L 656.84285,130 h 18.90058 l 5.70761,-15.4386 h 29.38011 L 716.53876,130 h 18.90058 z m 0.5614,46.31579 h -17.40351 l 8.60819,-22.45614 h 0.18713 z"/>
		<path d="M 743.35893,52.807016 V 130 h 22.36258 c 21.23976,0 38.92397,-16.09357 38.92397,-38.643276 0,-22.45614 -17.77778,-38.549708 -38.92397,-38.549708 z M 760.94958,114.2807 V 68.526315 h 2.71345 c 13.09941,0 21.9883,10.011696 21.9883,22.923977 -0.0936,12.912278 -8.98246,22.830408 -21.9883,22.830408 z"/>
		<path d="m 881.25075,130 h 17.59064 L 891.91741,52.807016 H 873.20396 L 856.08116,97.345029 838.95835,52.807016 H 820.2449 L 813.32092,130 h 17.59065 l 3.64912,-45.754387 h 0.46783 l 15.81287,45.286547 h 10.47953 l 15.81287,-45.286547 h 0.46783 z"/>
		<path d="M 950.09285,52.807016 H 933.81214 L 902.65425,130 h 18.90058 l 5.70761,-15.4386 h 29.38011 L 962.35016,130 h 18.90058 z m 0.5614,46.31579 h -17.40351 l 8.60819,-22.45614 h 0.18713 z"/>
		<path d="m 1006.761,82.093566 h 0.1871 L 1037.6382,130 h 17.5906 V 52.807016 h -17.5906 v 47.906434 h -0.1872 l -30.69,-47.906434 H 989.17033 V 130 h 17.59067 z"/>
	</g>
	<g aria-label="KHALIL GIBRAN">
		<path d="m 440.17983,290 -26.94737,-30.45614 23.29824,-27.4386 h -16 l -19.85964,23.64913 V 232.10526 H 387.47807 V 290 h 13.19299 V 265.4386 L 422.00439,290 Z"/>
		<path d="m 460.9068,266.77193 h 18.66667 V 290 h 13.19298 v -57.89474 h -13.19298 v 23.08772 H 460.9068 V 232.10526 H 447.71382 V 290 h 13.19298 z"/>
		<path d="M 535.57127,232.10526 H 523.36074 L 499.99232,290 h 14.17544 l 4.2807,-11.57895 h 22.03509 L 544.76425,290 h 14.17544 z m 0.42105,34.73685 H 522.93969 L 529.39583,250 h 0.14035 z"/>
		<path d="M 579.32236,232.10526 H 566.12938 V 290 h 33.12281 v -11.57895 h -19.92983 z"/>
		<path d="M 623.93311,232.10526 H 610.74013 V 290 h 13.19298 z"/>
		<path d="M 650.58881,232.10526 H 637.39583 V 290 h 33.1228 v -11.57895 h -19.92982 z"/>
		<path d="m 758.54605,257.57895 h -26.73684 v 10.17544 h 13.33333 c 0,7.08772 -6.24561,11.15789 -12.5614,11.15789 -8.14035,0 -14.73684,-8 -14.73684,-17.82456 0,-10.03509 6.59649,-18.10526 14.73684,-18.10526 5.12281,0 9.54386,2.03508 12.91228,7.43859 l 8.63158,-9.47368 c -5.05263,-6.10526 -12.14035,-9.89474 -22.31579,-9.89474 -16.2807,0 -28.21053,13.40351 -28.21053,30.03509 0,16.5614 12.63158,29.96491 28.21053,29.96491 11.36842,0 23.57895,-6.24561 26.73684,-20.91228 z"/>
		<path d="M 782.5022,232.10526 H 769.30922 V 290 h 13.19298 z"/>
		<path d="M 795.96492,232.10526 V 290 h 21.96491 c 12,0 18.94737,-6.59649 18.94737,-16.14035 0,-9.33333 -5.12281,-13.33333 -12.35088,-14.59649 4.91228,-2.52632 7.22807,-7.08772 7.22807,-12.42105 0,-11.01755 -7.85965,-14.73685 -17.82456,-14.73685 z m 13.19298,22.66667 V 242.2807 h 1.05263 c 5.75439,0 8.77193,1.75439 8.77193,5.89474 0,4.8421 -3.08772,6.59649 -8.77193,6.59649 z m 0,25.05263 v -13.68421 h 4.14035 c 6.24562,0 9.68421,1.89474 9.68421,7.22807 0,4.5614 -3.43859,6.45614 -9.68421,6.45614 z"/>
		<path d="M 847.70283,232.10526 V 290 h 13.19299 V 267.12281 L 878.58003,290 h 16.77193 l -19.92983,-23.92982 c 7.08772,-2.24562 11.85965,-8.07018 11.85965,-16.77193 0,-11.36842 -8.14035,-17.19299 -18.87719,-17.19299 z m 13.19299,25.68421 v -15.15789 h 1.54386 c 4.98245,0 10.94737,0.35088 10.94737,7.57895 0,7.22807 -5.96492,7.57894 -10.94737,7.57894 z"/>
		<path d="M 932.40789,232.10526 H 920.19736 L 896.82894,290 h 14.17544 l 4.2807,-11.57895 h 22.03509 L 941.60087,290 h 14.17544 z m 0.42105,34.73685 H 919.77631 L 926.23245,250 h 0.14035 z"/>
		<path d="m 976.15897,254.07018 h 0.14035 L 999.31686,290 h 13.19294 v -57.89474 h -13.19294 v 35.92983 h -0.14035 L 976.15897,232.10526 H 962.96599 V 290 h 13.19298 z"/>
	</g>
</svg>
